<svg xmlns="http://www.w3.org/2000/svg" viewBox="0 0 410 410" width="410" height="410" role="img" aria-label="ABO Pai degua - GitHub Pages"><title>ABO Pai degua - GitHub Pages</title><rect width="100%" height="100%" fill="#ffffff"/><path d="M40,40h10v10h-10zM50,40h10v10h-10zM60,40h10v10h-10zM70,40h10v10h-10zM80,40h10v10h-10zM90,40h10v10h-10zM100,40h10v10h-10zM130,40h10v10h-10zM190,40h10v10h-10zM200,40h10v10h-10zM210,40h10v10h-10zM220,40h10v10h-10zM230,40h10v10h-10zM250,40h10v10h-10zM270,40h10v10h-10zM300,40h10v10h-10zM310,40h10v10h-10zM320,40h10v10h-10zM330,40h10v10h-10zM340,40h10v10h-10zM350,40h10v10h-10zM360,40h10v10h-10zM40,50h10v10h-10zM100,50h10v10h-10zM120,50h10v10h-10zM130,50h10v10h-10zM150,50h10v10h-10zM160,50h10v10h-10zM210,50h10v10h-10zM240,50h10v10h-10zM300,50h10v10h-10zM360,50h10v10h-10zM40,60h10v10h-10zM60,60h10v10h-10zM70,60h10v10h-10zM80,60h10v10h-10zM100,60h10v10h-10zM130,60h10v10h-10zM140,60h10v10h-10zM150,60h10v10h-10zM180,60h10v10h-10zM200,60h10v10h-10zM230,60h10v10h-10zM240,60h10v10h-10zM250,60h10v10h-10zM300,60h10v10h-10zM320,60h10v10h-10zM330,60h10v10h-10zM340,60h10v10h-10zM360,60h10v10h-10zM40,70h10v10h-10zM60,70h10v10h-10zM70,70h10v10h-10zM80,70h10v10h-10zM100,70h10v10h-10zM120,70h10v10h-10zM130,70h10v10h-10zM150,70h10v10h-10zM200,70h10v10h-10zM220,70h10v10h-10zM230,70h10v10h-10zM300,70h10v10h-10zM320,70h10v10h-10zM330,70h10v10h-10zM340,70h10v10h-10zM360,70h10v10h-10zM40,80h10v10h-10zM60,80h10v10h-10zM70,80h10v10h-10zM80,80h10v10h-10zM100,80h10v10h-10zM140,80h10v10h-10zM160,80h10v10h-10zM170,80h10v10h-10zM180,80h10v10h-10zM190,80h10v10h-10zM210,80h10v10h-10zM220,80h10v10h-10zM230,80h10v10h-10zM240,80h10v10h-10zM270,80h10v10h-10zM300,80h10v10h-10zM320,80h10v10h-10zM330,80h10v10h-10zM340,80h10v10h-10zM360,80h10v10h-10zM40,90h10v10h-10zM100,90h10v10h-10zM120,90h10v10h-10zM140,90h10v10h-10zM170,90h10v10h-10zM180,90h10v10h-10zM190,90h10v10h-10zM200,90h10v10h-10zM210,90h10v10h-10zM260,90h10v10h-10zM280,90h10v10h-10zM300,90h10v10h-10zM360,90h10v10h-10zM40,100h10v10h-10zM50,100h10v10h-10zM60,100h10v10h-10zM70,100h10v10h-10zM80,100h10v10h-10zM90,100h10v10h-10zM100,100h10v10h-10zM120,100h10v10h-10zM140,100h10v10h-10zM160,100h10v10h-10zM180,100h10v10h-10zM200,100h10v10h-10zM220,100h10v10h-10zM240,100h10v10h-10zM260,100h10v10h-10zM280,100h10v10h-10zM300,100h10v10h-10zM310,100h10v10h-10zM320,100h10v10h-10zM330,100h10v10h-10zM340,100h10v10h-10zM350,100h10v10h-10zM360,100h10v10h-10zM160,110h10v10h-10zM170,110h10v10h-10zM190,110h10v10h-10zM210,110h10v10h-10zM220,110h10v10h-10zM230,110h10v10h-10zM250,110h10v10h-10zM280,110h10v10h-10zM40,120h10v10h-10zM50,120h10v10h-10zM60,120h10v10h-10zM70,120h10v10h-10zM80,120h10v10h-10zM100,120h10v10h-10zM110,120h10v10h-10zM120,120h10v10h-10zM130,120h10v10h-10zM140,120h10v10h-10zM160,120h10v10h-10zM180,120h10v10h-10zM190,120h10v10h-10zM260,120h10v10h-10zM270,120h10v10h-10zM280,120h10v10h-10zM290,120h10v10h-10zM310,120h10v10h-10zM330,120h10v10h-10zM350,120h10v10h-10zM80,130h10v10h-10zM110,130h10v10h-10zM120,130h10v10h-10zM130,130h10v10h-10zM190,130h10v10h-10zM200,130h10v10h-10zM220,130h10v10h-10zM230,130h10v10h-10zM240,130h10v10h-10zM270,130h10v10h-10zM300,130h10v10h-10zM340,130h10v10h-10zM350,130h10v10h-10zM360,130h10v10h-10zM50,140h10v10h-10zM100,140h10v10h-10zM110,140h10v10h-10zM130,140h10v10h-10zM150,140h10v10h-10zM160,140h10v10h-10zM220,140h10v10h-10zM240,140h10v10h-10zM250,140h10v10h-10zM280,140h10v10h-10zM290,140h10v10h-10zM300,140h10v10h-10zM330,140h10v10h-10zM350,140h10v10h-10zM40,150h10v10h-10zM60,150h10v10h-10zM70,150h10v10h-10zM110,150h10v10h-10zM130,150h10v10h-10zM140,150h10v10h-10zM150,150h10v10h-10zM180,150h10v10h-10zM200,150h10v10h-10zM250,150h10v10h-10zM260,150h10v10h-10zM290,150h10v10h-10zM300,150h10v10h-10zM310,150h10v10h-10zM320,150h10v10h-10zM340,150h10v10h-10zM60,160h10v10h-10zM80,160h10v10h-10zM90,160h10v10h-10zM100,160h10v10h-10zM110,160h10v10h-10zM120,160h10v10h-10zM130,160h10v10h-10zM150,160h10v10h-10zM200,160h10v10h-10zM220,160h10v10h-10zM260,160h10v10h-10zM290,160h10v10h-10zM310,160h10v10h-10zM320,160h10v10h-10zM330,160h10v10h-10zM40,170h10v10h-10zM70,170h10v10h-10zM80,170h10v10h-10zM90,170h10v10h-10zM110,170h10v10h-10zM120,170h10v10h-10zM140,170h10v10h-10zM160,170h10v10h-10zM170,170h10v10h-10zM180,170h10v10h-10zM190,170h10v10h-10zM210,170h10v10h-10zM230,170h10v10h-10zM240,170h10v10h-10zM270,170h10v10h-10zM300,170h10v10h-10zM350,170h10v10h-10zM360,170h10v10h-10zM70,180h10v10h-10zM80,180h10v10h-10zM100,180h10v10h-10zM110,180h10v10h-10zM130,180h10v10h-10zM170,180h10v10h-10zM180,180h10v10h-10zM190,180h10v10h-10zM200,180h10v10h-10zM210,180h10v10h-10zM240,180h10v10h-10zM260,180h10v10h-10zM300,180h10v10h-10zM310,180h10v10h-10zM320,180h10v10h-10zM350,180h10v10h-10zM50,190h10v10h-10zM60,190h10v10h-10zM90,190h10v10h-10zM110,190h10v10h-10zM140,190h10v10h-10zM160,190h10v10h-10zM170,190h10v10h-10zM190,190h10v10h-10zM210,190h10v10h-10zM220,190h10v10h-10zM240,190h10v10h-10zM250,190h10v10h-10zM260,190h10v10h-10zM280,190h10v10h-10zM300,190h10v10h-10zM310,190h10v10h-10zM340,190h10v10h-10zM50,200h10v10h-10zM70,200h10v10h-10zM80,200h10v10h-10zM90,200h10v10h-10zM100,200h10v10h-10zM120,200h10v10h-10zM130,200h10v10h-10zM140,200h10v10h-10zM160,200h10v10h-10zM180,200h10v10h-10zM190,200h10v10h-10zM230,200h10v10h-10zM270,200h10v10h-10zM280,200h10v10h-10zM290,200h10v10h-10zM310,200h10v10h-10zM320,200h10v10h-10zM350,200h10v10h-10zM50,210h10v10h-10zM80,210h10v10h-10zM110,210h10v10h-10zM140,210h10v10h-10zM190,210h10v10h-10zM200,210h10v10h-10zM220,210h10v10h-10zM230,210h10v10h-10zM270,210h10v10h-10zM300,210h10v10h-10zM330,210h10v10h-10zM350,210h10v10h-10zM360,210h10v10h-10zM60,220h10v10h-10zM100,220h10v10h-10zM120,220h10v10h-10zM140,220h10v10h-10zM150,220h10v10h-10zM160,220h10v10h-10zM220,220h10v10h-10zM240,220h10v10h-10zM260,220h10v10h-10zM290,220h10v10h-10zM300,220h10v10h-10zM330,220h10v10h-10zM350,220h10v10h-10zM50,230h10v10h-10zM80,230h10v10h-10zM110,230h10v10h-10zM120,230h10v10h-10zM130,230h10v10h-10zM140,230h10v10h-10zM150,230h10v10h-10zM180,230h10v10h-10zM200,230h10v10h-10zM250,230h10v10h-10zM260,230h10v10h-10zM270,230h10v10h-10zM290,230h10v10h-10zM300,230h10v10h-10zM310,230h10v10h-10zM340,230h10v10h-10zM50,240h10v10h-10zM60,240h10v10h-10zM80,240h10v10h-10zM100,240h10v10h-10zM110,240h10v10h-10zM120,240h10v10h-10zM130,240h10v10h-10zM140,240h10v10h-10zM150,240h10v10h-10zM200,240h10v10h-10zM220,240h10v10h-10zM260,240h10v10h-10zM280,240h10v10h-10zM290,240h10v10h-10zM310,240h10v10h-10zM320,240h10v10h-10zM350,240h10v10h-10zM40,250h10v10h-10zM70,250h10v10h-10zM90,250h10v10h-10zM110,250h10v10h-10zM130,250h10v10h-10zM140,250h10v10h-10zM160,250h10v10h-10zM170,250h10v10h-10zM180,250h10v10h-10zM190,250h10v10h-10zM210,250h10v10h-10zM230,250h10v10h-10zM240,250h10v10h-10zM250,250h10v10h-10zM260,250h10v10h-10zM270,250h10v10h-10zM290,250h10v10h-10zM300,250h10v10h-10zM330,250h10v10h-10zM350,250h10v10h-10zM360,250h10v10h-10zM40,260h10v10h-10zM60,260h10v10h-10zM80,260h10v10h-10zM90,260h10v10h-10zM100,260h10v10h-10zM120,260h10v10h-10zM130,260h10v10h-10zM140,260h10v10h-10zM170,260h10v10h-10zM180,260h10v10h-10zM190,260h10v10h-10zM200,260h10v10h-10zM210,260h10v10h-10zM240,260h10v10h-10zM280,260h10v10h-10zM310,260h10v10h-10zM320,260h10v10h-10zM330,260h10v10h-10zM350,260h10v10h-10zM40,270h10v10h-10zM90,270h10v10h-10zM110,270h10v10h-10zM140,270h10v10h-10zM160,270h10v10h-10zM170,270h10v10h-10zM190,270h10v10h-10zM210,270h10v10h-10zM220,270h10v10h-10zM240,270h10v10h-10zM250,270h10v10h-10zM260,270h10v10h-10zM270,270h10v10h-10zM300,270h10v10h-10zM330,270h10v10h-10zM340,270h10v10h-10zM40,280h10v10h-10zM70,280h10v10h-10zM90,280h10v10h-10zM100,280h10v10h-10zM160,280h10v10h-10zM180,280h10v10h-10zM190,280h10v10h-10zM230,280h10v10h-10zM260,280h10v10h-10zM270,280h10v10h-10zM280,280h10v10h-10zM290,280h10v10h-10zM300,280h10v10h-10zM310,280h10v10h-10zM320,280h10v10h-10zM330,280h10v10h-10zM360,280h10v10h-10zM120,290h10v10h-10zM140,290h10v10h-10zM190,290h10v10h-10zM200,290h10v10h-10zM220,290h10v10h-10zM230,290h10v10h-10zM240,290h10v10h-10zM280,290h10v10h-10zM320,290h10v10h-10zM340,290h10v10h-10zM360,290h10v10h-10zM40,300h10v10h-10zM50,300h10v10h-10zM60,300h10v10h-10zM70,300h10v10h-10zM80,300h10v10h-10zM90,300h10v10h-10zM100,300h10v10h-10zM120,300h10v10h-10zM130,300h10v10h-10zM150,300h10v10h-10zM160,300h10v10h-10zM220,300h10v10h-10zM240,300h10v10h-10zM250,300h10v10h-10zM270,300h10v10h-10zM280,300h10v10h-10zM300,300h10v10h-10zM320,300h10v10h-10zM340,300h10v10h-10zM350,300h10v10h-10zM40,310h10v10h-10zM100,310h10v10h-10zM150,310h10v10h-10zM180,310h10v10h-10zM200,310h10v10h-10zM240,310h10v10h-10zM250,310h10v10h-10zM260,310h10v10h-10zM280,310h10v10h-10zM320,310h10v10h-10zM330,310h10v10h-10zM340,310h10v10h-10zM40,320h10v10h-10zM60,320h10v10h-10zM70,320h10v10h-10zM80,320h10v10h-10zM100,320h10v10h-10zM120,320h10v10h-10zM150,320h10v10h-10zM200,320h10v10h-10zM220,320h10v10h-10zM260,320h10v10h-10zM280,320h10v10h-10zM290,320h10v10h-10zM300,320h10v10h-10zM310,320h10v10h-10zM320,320h10v10h-10zM330,320h10v10h-10zM350,320h10v10h-10zM360,320h10v10h-10zM40,330h10v10h-10zM60,330h10v10h-10zM70,330h10v10h-10zM80,330h10v10h-10zM100,330h10v10h-10zM120,330h10v10h-10zM140,330h10v10h-10zM160,330h10v10h-10zM170,330h10v10h-10zM180,330h10v10h-10zM190,330h10v10h-10zM210,330h10v10h-10zM230,330h10v10h-10zM240,330h10v10h-10zM250,330h10v10h-10zM260,330h10v10h-10zM270,330h10v10h-10zM280,330h10v10h-10zM290,330h10v10h-10zM310,330h10v10h-10zM320,330h10v10h-10zM340,330h10v10h-10zM360,330h10v10h-10zM40,340h10v10h-10zM60,340h10v10h-10zM70,340h10v10h-10zM80,340h10v10h-10zM100,340h10v10h-10zM120,340h10v10h-10zM130,340h10v10h-10zM140,340h10v10h-10zM170,340h10v10h-10zM180,340h10v10h-10zM190,340h10v10h-10zM200,340h10v10h-10zM210,340h10v10h-10zM270,340h10v10h-10zM280,340h10v10h-10zM300,340h10v10h-10zM40,350h10v10h-10zM100,350h10v10h-10zM120,350h10v10h-10zM140,350h10v10h-10zM160,350h10v10h-10zM170,350h10v10h-10zM190,350h10v10h-10zM210,350h10v10h-10zM220,350h10v10h-10zM240,350h10v10h-10zM250,350h10v10h-10zM260,350h10v10h-10zM290,350h10v10h-10zM330,350h10v10h-10zM340,350h10v10h-10zM40,360h10v10h-10zM50,360h10v10h-10zM60,360h10v10h-10zM70,360h10v10h-10zM80,360h10v10h-10zM90,360h10v10h-10zM100,360h10v10h-10zM120,360h10v10h-10zM160,360h10v10h-10zM180,360h10v10h-10zM190,360h10v10h-10zM240,360h10v10h-10zM260,360h10v10h-10zM270,360h10v10h-10zM280,360h10v10h-10zM290,360h10v10h-10zM300,360h10v10h-10zM310,360h10v10h-10zM320,360h10v10h-10zM350,360h10v10h-10z" fill="#111827"/></svg>